<svg xmlns="http://www.w3.org/2000/svg" xmlns:xlink="http://www.w3.org/1999/xlink" version="1.1" x="0px" y="0px" viewBox="0 0 100 100" enable-background="new 0 0 100 100" xml:space="preserve"><path fill="#fe5d3c" d="M80,35C80,18.5,66.5,5,50,5S20,18.5,20,35v10h-5v15c0,19.3,15.7,35,35,35s35-15.7,35-35V45h-5V35z M25,35  c0-13.8,11.2-25,25-25s25,11.2,25,25v10h-5V35c0-11-9-20-20-20c-11,0-20,9-20,20v10h-5V35z M65,35v10H35V35c0-8.3,6.7-15,15-15  C58.3,20,65,26.7,65,35z M80,60c0,16.5-13.5,30-30,30S20,76.5,20,60V50h60V60z"/><path fill="#fe5d3c" d="M47.5,74.6c0,0.1,0,0.3,0,0.4v2.5c0,1.4,1.1,2.5,2.5,2.5s2.5-1.1,2.5-2.5V75c0-0.1,0-0.3,0-0.4c2.9-1,5-3.8,5-7.1  c0-4.1-3.4-7.5-7.5-7.5s-7.5,3.4-7.5,7.5C42.5,70.8,44.6,73.6,47.5,74.6z M50,65c1.4,0,2.5,1.1,2.5,2.5S51.4,70,50,70  c-1.4,0-2.5-1.1-2.5-2.5S48.6,65,50,65z"/></svg>
