<svg xmlns="http://www.w3.org/2000/svg" xmlns:xlink="http://www.w3.org/1999/xlink" version="1.1" x="0px" y="0px" viewBox="0 0 100 100" enable-background="new 0 0 100 100" xml:space="preserve"><path d="M89.32,11.934c-5.79,0-10.5,4.71-10.5,10.5c0,3.167,1.415,6.003,3.639,7.93L67.692,57.727  c-1.417-0.714-3.013-1.126-4.705-1.126c-2.055,0-3.968,0.603-5.588,1.626l-11.593-8.33c0.854-1.519,1.348-3.267,1.348-5.13  c0-5.79-4.71-10.5-10.5-10.5s-10.5,4.71-10.5,10.5c0,2.785,1.097,5.313,2.873,7.195L11.949,79.073  c-0.532-0.084-1.073-0.14-1.628-0.14c-5.79,0-10.5,4.71-10.5,10.5s4.71,10.5,10.5,10.5s10.5-4.71,10.5-10.5  c0-2.697-1.031-5.151-2.708-7.013l17.168-27.255c0.45,0.06,0.906,0.101,1.373,0.101c1.297,0,2.535-0.247,3.682-0.68l12.719,9.138  c-0.362,1.062-0.567,2.194-0.567,3.376c0,5.79,4.71,10.5,10.5,10.5s10.5-4.71,10.5-10.5c0-1.394-0.278-2.722-0.773-3.938  l16.32-30.243c0.096,0.003,0.189,0.015,0.286,0.015c5.79,0,10.5-4.71,10.5-10.5S95.11,11.934,89.32,11.934z M10.321,92.934  c-1.93,0-3.5-1.57-3.5-3.5s1.57-3.5,3.5-3.5s3.5,1.57,3.5,3.5S12.25,92.934,10.321,92.934z M36.654,48.267c-1.93,0-3.5-1.57-3.5-3.5  s1.57-3.5,3.5-3.5s3.5,1.57,3.5,3.5S38.583,48.267,36.654,48.267z M62.987,70.601c-1.93,0-3.5-1.57-3.5-3.5s1.57-3.5,3.5-3.5  s3.5,1.57,3.5,3.5S64.917,70.601,62.987,70.601z M89.32,25.934c-1.93,0-3.5-1.57-3.5-3.5s1.57-3.5,3.5-3.5s3.5,1.57,3.5,3.5  S91.25,25.934,89.32,25.934z"/></svg>
