<svg xmlns="http://www.w3.org/2000/svg" xmlns:xlink="http://www.w3.org/1999/xlink" version="1.1" x="0px" y="0px" viewBox="0 0 100 100" enable-background="new 0 0 100 100" xml:space="preserve"><g><g><path fill-rule="evenodd" clip-rule="evenodd" d="M94.905,33.278c-0.098-3.685-1.596-6.733-5.534-8.498    c-1.596-0.713-3.238-1.097-4.978-1.063c-1.452,0.032-2.91,0.035-4.363-0.029c-0.75-0.032-1.168,0.344-1.514,0.98    c-0.809,1.482-1.633,2.953-2.459,4.425c-0.111,0.198-0.256,0.375-0.407,0.542c-0.232,0.253-0.375,0.24-0.573-0.116    c-0.925-1.688-1.932-3.323-2.819-5.029c-0.279-0.544-0.57-0.785-1.114-0.774c-2.087,0.034-4.219-0.217-6.258,0.143    c-4.255,0.747-8.162,3.217-8.82,9.253c-0.082,0.758-0.243,0.872-0.818,0.459c-1.295-0.927-2.597-1.846-3.839-2.85    c-1.143-0.927-2.375-0.888-3.597-0.46c-0.494,0.175-0.804,0.198-1.205-0.113c-0.418-0.323-0.889-0.565-1.315-0.877    c-2.94-2.161-5.875-4.33-8.811-6.496c-2.205-1.627-4.409-3.251-6.609-4.887c-0.639-0.473-0.898-0.465-1.316,0.098    c-0.401,0.544-0.354,0.843,0.308,1.379c0.705,0.57,1.43,1.115,2.16,1.651c3.342,2.443,6.689,4.882,10.035,7.323    c1.347,0.98,2.689,1.97,4.048,2.93c0.582,0.409,0.875,0.829,0.709,1.675c-0.344,1.757,0.296,3.114,1.688,4.11    c3.276,2.351,6.538,4.718,9.792,7.106c1.475,1.083,3.833,0.967,4.835-0.238c0.684-0.824,0.922-1.714,0.924-2.745    c0.006-1.73-0.021-3.463,0.017-5.193c0.005-0.351,0.168-0.946,0.364-0.998c0.476-0.132,1.02-0.05,1.524,0.029    c0.103,0.016,0.206,0.394,0.225,0.613c0.037,0.481,0.026,0.967,0.026,1.45C65.208,56.77,65.2,68.795,65.206,88.488    c0,1.235-0.088,2.478,0.485,3.658c1.009,2.068,2.637,2.888,4.681,2.682c1.828-0.186,3.123-1.258,3.862-3.148    c0.336-0.859,0.387-1.702,0.387-2.582c0.002-12.563,0.002-17.461,0.002-30.026c0-0.362,0.008-0.725,0.003-1.086    c-0.005-0.584,0.092-1.031,0.786-1.018c0.767,0.017,0.996,0.206,1.044,1.044c0.016,0.282,0.003,0.565,0.003,0.848    c0,12.685,0.006,17.702-0.009,30.387c-0.002,1.96,0.484,3.68,2.068,4.779c2.584,1.785,6,0.848,7.186-2.634    c0.244-0.722,0.151-1.593,0.153-2.394c0.005-7.531,0-5.861-0.002-13.393c-0.004-2.335,0-6.203-0.004-8.541    c0-10.229,0-20.457,0-30.685c0-0.161,0.011-0.325-0.005-0.483c-0.068-0.716,0.201-1.03,0.888-1.012    c0.866,0.019,1.025,0.111,1.063,0.975c0.028,0.685,0.008,1.369,0.008,2.053c0,5.479,0.008,10.955-0.011,16.43    c-0.002,1.092,0.256,2.04,0.875,2.909c1.48,2.082,4.49,1.688,5.608-0.341c0.398-0.725,0.651-1.654,0.656-2.491    C94.984,47.372,95.093,40.318,94.905,33.278z M56.586,46.367c-0.561-0.394-1.099-0.824-1.662-1.209    c-0.512-0.354-0.734-0.264-0.805,0.386c-0.069,0.636-0.059,1.286-0.04,1.928c0.019,0.655-0.22,0.988-0.848,0.956    c-0.299-0.013-0.596,0.002-0.895,0.002c-13.958,0-27.916,0-41.874,0c-0.224,0-0.448-0.016-0.671-0.005    c-0.581,0.032-0.803-0.306-0.8-0.885c0.002-0.565,0-1.128,0-1.693c0.001-9.946,0.002-19.892,0.002-29.84    c0-0.201-0.001-0.402,0-0.603c0.008-1.556,0.008-1.561,1.415-1.561c14.069,0,28.139,0,42.208,0.003c0.151,0,0.3-0.005,0.447,0.002    c0.916,0.042,0.998,0.113,1.002,1.146c0.013,2.9,0.007,5.798,0.007,8.699c0,1.207-0.016,2.417,0.016,3.624    c0.011,0.386,0.066,0.825,0.249,1.142c0.15,0.261,0.504,0.48,0.793,0.52c0.137,0.019,0.337-0.414,0.496-0.655    c0.613-0.951,1.188-1.933,1.841-2.85c0.405-0.571,0.6-1.133,0.595-1.862c-0.035-3.786-0.016-7.571-0.021-11.356    c-0.005-1.868-0.771-2.7-2.527-2.703c-8.023-0.008-16.047-0.005-24.071-0.005c-7.948,0-15.898,0.016-23.847-0.019    C6.394,9.524,5.572,9.965,5.184,11.2c-0.117,0.367-0.17,0.776-0.17,1.167c-0.011,12.484,0,24.968-0.025,37.45    c-0.002,1.833,1.174,2.936,2.676,2.93c15.749-0.04,31.498-0.019,47.247-0.035c0.646-0.002,1.334-0.121,1.931-0.377    c0.401-0.175,0.872-0.64,0.961-1.06c0.202-0.919,0.181-1.894,0.241-2.848C58.12,47.279,57.299,46.872,56.586,46.367z     M75.616,22.229c4.107-0.003,7.995-3.696,7.785-8.654c-0.02-5.272-3.609-8.421-7.909-8.482c-3.862-0.056-7.764,2.977-7.832,8.611    C67.602,18.556,71.387,22.231,75.616,22.229z"/></g></g></svg>